<?xml version="1.0" standalone="no"?>
<!DOCTYPE svg PUBLIC "-//W3C//DTD SVG 20010904//EN"
 "http://www.w3.org/TR/2001/REC-SVG-20010904/DTD/svg10.dtd">
<svg version="1.0" xmlns="http://www.w3.org/2000/svg"
 width="500.000000pt" height="500.000000pt" viewBox="0 0 500.000000 500.000000"
 preserveAspectRatio="xMidYMid meet">

<g transform="translate(0.000000,500.000000) scale(0.100000,-0.100000)"
fill="#000000" stroke="none">
<path d="M3293 3199 c-150 -31 -312 -274 -339 -507 -21 -191 96 -275 264 -191
42 21 83 54 133 107 39 42 80 78 91 78 10 1 27 9 38 19 12 11 20 13 20 6 0 -6
11 -16 24 -22 19 -9 33 -7 69 9 44 20 45 20 50 1 8 -30 20 -23 46 27 l24 45
22 -27 c21 -27 24 -28 69 -17 47 10 47 10 42 -13 -10 -39 11 -36 53 6 52 52
71 53 71 0 0 -22 4 -40 9 -40 5 0 25 18 44 40 39 46 57 51 57 16 0 -56 48 -66
118 -24 28 17 32 18 32 4 0 -9 11 -21 25 -28 20 -9 32 -7 72 13 l48 24 23 -23
c26 -27 64 -24 117 8 30 19 30 18 53 -6 18 -21 27 -24 54 -19 18 4 43 13 55
21 28 18 33 18 33 0 0 -26 21 -29 51 -7 16 12 29 17 29 12 0 -6 9 -15 20 -21
27 -15 75 1 121 39 48 40 30 49 -22 11 -27 -19 -53 -30 -69 -28 -22 3 -25 7
-23 39 2 37 2 37 -36 35 -28 -1 -50 -11 -75 -34 -38 -33 -71 -46 -103 -40 -30
5 -27 71 11 213 21 78 31 134 26 139 -12 12 -20 -12 -61 -172 -37 -149 -55
-174 -128 -176 -36 -1 -36 -1 -39 44 -1 27 11 95 32 173 18 70 30 130 25 133
-12 7 -25 -29 -63 -180 -31 -121 -35 -131 -67 -153 -58 -40 -93 -28 -82 30 6
33 -9 35 -30 4 -19 -29 -80 -62 -101 -54 -9 4 -16 17 -16 30 0 53 -39 61 -81
16 l-29 -31 0 26 c0 46 -35 45 -99 -1 -24 -18 -24 -18 -17 10 7 31 0 34 -25
11 -10 -9 -36 -18 -59 -21 -36 -5 -42 -3 -47 15 -7 30 -30 35 -53 12 -16 -16
-20 -17 -20 -5 0 22 -9 19 -32 -10 -23 -30 -68 -55 -98 -55 -21 0 -23 7 -20
51 1 23 -3 26 -32 26 -40 0 -54 -10 -79 -59 -29 -58 -141 -170 -201 -203 -67
-37 -153 -41 -188 -10 -89 79 -55 311 72 501 51 77 103 125 162 149 48 20 72
19 97 -6 44 -44 3 -203 -70 -277 -33 -32 -65 -46 -41 -17 19 23 3 31 -20 10
-24 -22 -26 -55 -4 -55 76 0 178 157 178 276 1 89 -32 120 -111 103z m198
-447 c-5 -10 -17 -24 -25 -32 -13 -10 -16 -10 -16 1 0 24 16 39 48 48 1 1 -2
-7 -7 -17z m1279 -12 c-20 -29 -40 -39 -40 -22 0 18 29 44 58 51 2 1 -6 -12
-18 -29z"/>
<path d="M405 3186 c-151 -68 -295 -329 -295 -534 0 -123 46 -182 143 -182 95
0 198 62 282 169 43 55 49 59 71 49 18 -8 28 -7 46 4 13 8 39 17 58 21 19 3
43 8 53 12 12 5 17 2 17 -9 0 -33 65 -38 85 -7 4 7 16 4 33 -9 23 -17 33 -18
64 -10 21 6 40 15 43 20 4 6 10 10 14 10 5 0 0 -30 -10 -67 -23 -81 -25 -143
-6 -143 21 0 28 12 16 26 -10 12 4 70 93 407 l10 37 189 0 c119 0 189 4 189
10 0 6 -68 10 -185 10 -102 0 -185 1 -185 3 0 1 7 27 15 57 17 63 19 90 7 90
-5 0 -18 -33 -29 -72 l-19 -73 -92 -3 c-117 -4 -122 -22 -6 -22 l87 0 -7 -32
c-4 -18 -16 -67 -27 -109 -23 -85 -55 -120 -113 -123 -30 -1 -31 1 -30 37 1
20 -2 37 -6 37 -4 0 -21 -18 -39 -40 -17 -22 -39 -40 -48 -40 -13 0 -14 8 -9
40 6 40 -5 54 -21 26 -11 -19 -48 -36 -77 -36 -21 0 -26 5 -26 25 0 20 -5 25
-25 25 -14 0 -28 -6 -31 -14 -3 -8 -13 -12 -25 -9 -12 4 -19 0 -19 -9 0 -22
-91 -139 -141 -182 -117 -100 -249 -111 -295 -24 -43 80 -10 268 74 418 87
157 231 251 288 189 40 -45 8 -186 -62 -267 -38 -45 -59 -54 -49 -22 9 28 -11
25 -31 -5 -35 -54 18 -61 74 -10 62 55 104 145 110 231 4 63 2 74 -17 93 -25
25 -89 28 -136 7z m260 -426 c3 -5 1 -10 -4 -10 -6 0 -11 5 -11 10 0 6 2 10 4
10 3 0 8 -4 11 -10z m-30 -30 c18 -19 17 -20 -3 -20 -15 0 -22 6 -22 20 0 11
2 20 3 20 2 0 12 -9 22 -20z"/>
<path d="M2167 3063 c-3 -5 -22 -71 -42 -147 -37 -144 -43 -204 -23 -224 16
-16 48 -15 67 2 22 18 135 40 139 26 14 -42 61 -46 114 -9 15 10 30 19 33 19
16 0 -14 -61 -58 -114 -69 -85 -129 -209 -125 -261 2 -32 7 -41 24 -43 45 -6
112 117 155 287 15 61 63 109 136 137 23 9 43 21 43 25 0 18 -38 8 -94 -26
-43 -26 -56 -30 -52 -17 21 71 15 92 -14 56 -22 -26 -99 -66 -116 -60 -11 4
-13 14 -8 41 6 35 -8 50 -19 21 -6 -14 -65 -36 -99 -36 -10 0 -18 9 -20 23 -4
27 -39 35 -58 12 -11 -13 -11 -21 -2 -36 15 -24 15 -26 -3 -33 -8 -3 -19 3
-25 14 -11 21 1 87 44 245 13 50 21 94 16 98 -4 5 -10 5 -13 0z m246 -505
c-38 -130 -86 -227 -108 -217 -17 7 -8 56 23 121 27 58 86 148 97 148 2 0 -3
-24 -12 -52z"/>
<path d="M4262 2848 c-15 -15 -16 -38 -2 -38 12 0 23 25 18 40 -2 7 -7 7 -16
-2z"/>
<path d="M1420 2780 c-16 -16 -20 -17 -20 -5 0 22 -8 19 -35 -14 -28 -32 -77
-56 -100 -47 -9 3 -15 18 -15 41 0 19 -3 35 -7 35 -5 -1 -20 -19 -35 -40 -39
-56 -80 -53 -58 4 11 31 -4 45 -19 17 -15 -27 -14 -66 3 -80 15 -13 59 -1 71
19 5 8 13 5 26 -9 24 -26 33 -26 86 -2 40 19 41 19 46 0 8 -30 20 -23 46 27
l24 45 22 -27 c19 -24 25 -26 63 -19 34 5 42 4 42 -9 0 -24 36 -38 78 -30 62
11 155 64 140 79 -2 2 -30 -9 -63 -26 -61 -30 -115 -36 -123 -11 -2 8 7 12 26
12 31 0 58 22 47 40 -9 15 -38 12 -86 -10 -58 -26 -99 -26 -106 -1 -7 29 -31
33 -53 11z"/>
<path d="M850 2127 c0 -47 13 -67 45 -67 12 0 26 5 33 12 14 14 16 98 2 98 -5
0 -10 -21 -10 -46 0 -41 -2 -45 -22 -42 -19 2 -24 10 -26 46 -4 55 -22 55 -22
-1z"/>
<path d="M1090 2115 c0 -30 5 -55 10 -55 6 0 10 15 10 33 l1 32 29 -32 c16
-18 32 -33 35 -33 3 0 5 25 5 55 0 30 -4 55 -10 55 -5 0 -10 -15 -10 -32 l-1
-33 -28 33 c-15 17 -31 32 -34 32 -4 0 -7 -25 -7 -55z"/>
<path d="M1320 2161 c0 -22 43 -102 53 -98 15 5 59 107 46 107 -5 0 -19 -19
-29 -42 l-19 -43 -17 43 c-15 38 -34 56 -34 33z"/>
<path d="M1560 2115 l0 -55 40 0 c22 0 40 5 40 10 0 6 -13 10 -30 10 -20 0
-30 5 -30 15 0 9 9 15 25 15 14 0 25 5 25 10 0 6 -11 10 -25 10 -14 0 -25 5
-25 10 0 6 11 10 24 10 14 0 28 5 31 10 4 6 -10 10 -34 10 l-41 0 0 -55z"/>
<path d="M1780 2115 c0 -30 5 -55 10 -55 6 0 10 25 10 55 0 30 -4 55 -10 55
-5 0 -10 -25 -10 -55z"/>
<path d="M1940 2115 l0 -55 40 0 c22 0 40 5 40 10 0 6 -13 10 -30 10 -29 0
-30 2 -30 45 0 25 -4 45 -10 45 -5 0 -10 -25 -10 -55z"/>
<path d="M2300 2163 c0 -5 9 -21 20 -38 11 -16 20 -38 20 -47 0 -10 5 -18 10
-18 6 0 10 10 10 23 0 12 9 37 20 55 23 38 10 43 -17 6 l-19 -25 -14 25 c-13
25 -30 35 -30 19z"/>
<path d="M2538 2159 c-23 -13 -23 -62 -2 -84 25 -24 75 -16 93 16 13 24 13 29
-2 53 -19 28 -57 34 -89 15z m79 -35 c8 -22 -17 -45 -46 -42 -32 4 -42 45 -16
65 20 14 52 2 62 -23z"/>
<path d="M2770 2134 c0 -50 15 -74 48 -74 39 0 52 17 52 67 0 56 -18 56 -22 1
-3 -38 -6 -43 -28 -43 -22 0 -25 5 -28 43 -4 51 -22 57 -22 6z"/>
<path d="M3010 2115 c0 -30 5 -55 10 -55 6 0 10 7 10 15 0 8 9 15 20 15 11 0
23 -7 26 -15 9 -23 26 -18 19 5 -4 12 -1 27 5 35 21 26 -5 55 -50 55 l-40 0 0
-55z m73 29 c12 -12 -6 -34 -29 -34 -17 0 -24 6 -24 20 0 14 7 20 23 20 13 0
26 -3 30 -6z"/>
<path d="M3385 2160 c3 -5 13 -10 21 -10 10 0 14 -12 14 -45 0 -25 5 -45 10
-45 6 0 10 20 10 45 0 33 4 45 14 45 8 0 18 5 21 10 4 6 -13 10 -45 10 -32 0
-49 -4 -45 -10z"/>
<path d="M3610 2116 c0 -31 5 -56 10 -56 6 0 10 7 10 15 0 8 6 15 14 15 7 0
19 -7 26 -15 17 -21 33 -19 22 2 -7 11 -6 23 1 35 18 28 -3 52 -47 56 l-36 3
0 -55z m68 17 c-2 -10 -13 -19 -26 -21 -17 -3 -22 2 -22 17 0 16 6 21 26 21
19 0 25 -5 22 -17z"/>
<path d="M3840 2127 c0 -47 13 -67 45 -67 12 0 26 5 33 12 14 14 16 98 2 98
-5 0 -10 -21 -10 -46 0 -41 -2 -45 -22 -42 -19 2 -24 10 -26 46 -4 55 -22 55
-22 -1z"/>
<path d="M4080 2115 l0 -55 40 0 c22 0 40 5 40 10 0 6 -13 10 -30 10 -20 0
-30 5 -30 15 0 9 9 15 25 15 14 0 25 5 25 10 0 6 -11 10 -25 10 -14 0 -25 5
-25 10 0 6 11 10 24 10 14 0 28 5 31 10 4 6 -10 10 -34 10 l-41 0 0 -55z"/>
<path d="M412 1963 c49 -2 127 -2 175 0 49 1 9 3 -87 3 -96 0 -136 -2 -88 -3z"/>
<path d="M4413 1963 c48 -2 126 -2 175 0 48 1 8 3 -88 3 -96 0 -136 -2 -87 -3z"/>
<path d="M910 1895 c0 -30 5 -55 10 -55 6 0 10 9 10 20 0 15 7 20 25 20 14 0
25 5 25 10 0 6 -11 10 -25 10 -16 0 -25 6 -25 15 0 9 9 15 24 15 14 0 28 5 31
10 4 6 -10 10 -34 10 l-41 0 0 -55z"/>
<path d="M1132 1898 c-21 -48 -22 -83 -1 -45 12 21 57 23 65 2 4 -8 12 -15 20
-15 17 0 -29 104 -48 107 -7 2 -23 -20 -36 -49z m42 -16 c-21 -5 -24 0 -17 27
l6 23 13 -23 c11 -20 10 -25 -2 -27z"/>
<path d="M1354 1935 c-9 -23 2 -43 27 -47 12 -2 24 -9 27 -17 3 -10 -3 -12
-27 -9 -20 3 -30 1 -28 -6 2 -6 19 -11 38 -11 28 0 35 4 37 23 3 18 -3 25 -28
33 -37 13 -34 35 4 31 14 -1 26 2 26 8 0 16 -70 12 -76 -5z"/>
<path d="M1570 1895 c0 -30 5 -55 10 -55 6 0 10 11 10 25 0 21 5 25 30 25 25
0 30 -4 30 -25 0 -14 5 -25 10 -25 6 0 10 25 10 55 0 30 -4 55 -10 55 -5 0
-10 -9 -10 -20 0 -16 -7 -20 -30 -20 -23 0 -30 4 -30 20 0 11 -4 20 -10 20 -5
0 -10 -25 -10 -55z"/>
<path d="M1810 1895 c0 -30 5 -55 10 -55 6 0 10 25 10 55 0 30 -4 55 -10 55
-5 0 -10 -25 -10 -55z"/>
<path d="M1988 1939 c-23 -13 -23 -62 -2 -84 25 -24 75 -16 93 16 13 24 13 29
-2 53 -19 28 -57 34 -89 15z m79 -35 c8 -22 -17 -45 -46 -42 -32 4 -42 45 -16
65 20 14 52 2 62 -23z"/>
<path d="M2220 1895 c0 -30 5 -55 10 -55 6 0 10 17 10 38 l1 37 32 -38 c18
-20 35 -37 40 -37 4 0 7 25 7 55 0 30 -4 55 -10 55 -5 0 -10 -16 -10 -37 l0
-36 -27 36 c-40 52 -53 48 -53 -18z"/>
<path d="M2620 1896 c0 -31 5 -56 10 -56 6 0 10 6 10 13 0 7 15 17 33 22 27 8
32 15 32 40 0 28 -3 30 -42 33 l-43 3 0 -55z m68 17 c-2 -10 -13 -19 -26 -21
-17 -3 -22 2 -22 17 0 16 6 21 26 21 19 0 25 -5 22 -17z"/>
<path d="M2850 1895 l0 -55 40 0 c22 0 40 5 40 10 0 6 -13 10 -30 10 -20 0
-30 5 -30 15 0 10 10 15 31 15 17 0 28 4 24 10 -3 6 -17 10 -31 10 -13 0 -24
5 -24 10 0 6 14 10 30 10 17 0 30 5 30 10 0 6 -18 10 -40 10 l-40 0 0 -55z"/>
<path d="M3070 1896 c0 -31 5 -56 10 -56 6 0 10 7 10 15 0 21 30 19 46 -2 7
-10 16 -15 20 -10 4 4 2 13 -4 19 -8 8 -8 15 -1 24 6 7 9 23 7 36 -2 19 -10
23 -45 26 l-43 3 0 -55z m68 17 c-2 -10 -13 -19 -26 -21 -17 -3 -22 2 -22 17
0 16 6 21 26 21 19 0 25 -5 22 -17z"/>
<path d="M3300 1935 c-16 -19 0 -40 35 -49 37 -9 30 -26 -11 -26 -21 0 -33 -4
-29 -10 9 -14 58 -13 73 2 21 21 13 37 -25 53 -30 13 -35 18 -23 25 8 5 23 7
33 4 9 -3 17 -1 17 5 0 17 -56 13 -70 -4z"/>
<path d="M3520 1935 c-18 -22 -15 -66 6 -82 40 -29 97 -6 97 40 0 38 -20 57
-58 57 -18 0 -38 -7 -45 -15z m78 -43 c-2 -23 -8 -27 -33 -27 -24 0 -31 5 -33
24 -5 32 23 54 50 40 13 -7 18 -19 16 -37z"/>
<path d="M3760 1895 c0 -30 5 -55 10 -55 6 0 10 17 10 38 l1 37 30 -37 c17
-21 35 -38 40 -38 5 0 9 25 9 55 0 30 -4 55 -10 55 -5 0 -10 -17 -10 -37 l0
-38 -31 38 c-17 20 -35 37 -40 37 -5 0 -9 -25 -9 -55z"/>
<path d="M4012 1898 c-21 -48 -22 -83 -1 -45 12 21 57 23 65 2 4 -8 12 -15 20
-15 17 0 -29 104 -48 107 -7 2 -23 -20 -36 -49z m42 -16 c-21 -5 -24 0 -17 27
l6 23 13 -23 c11 -20 10 -25 -2 -27z"/>
</g>
</svg>
