<?xml version="1.0" standalone="no"?>
<!DOCTYPE svg PUBLIC "-//W3C//DTD SVG 20010904//EN"
 "http://www.w3.org/TR/2001/REC-SVG-20010904/DTD/svg10.dtd">
<svg version="1.0" xmlns="http://www.w3.org/2000/svg"
 width="500.000000pt" height="500.000000pt" viewBox="0 0 500.000000 500.000000"
 preserveAspectRatio="xMidYMid meet">

<g transform="translate(0.000000,500.000000) scale(0.100000,-0.100000)"
fill="#000000" stroke="none">
<path d="M3273 3079 c-150 -31 -312 -274 -339 -507 -21 -191 96 -275 264 -191
44 21 83 54 136 111 43 46 79 77 86 73 6 -4 22 1 36 10 22 14 26 14 40 0 20
-19 30 -19 81 4 40 19 41 19 46 0 8 -30 25 -22 47 20 26 51 35 56 48 26 13
-27 29 -30 81 -15 32 9 33 8 27 -15 -10 -40 10 -38 53 5 52 52 71 53 71 0 0
-22 4 -40 9 -40 5 0 25 18 44 40 39 46 57 51 57 16 0 -56 48 -66 118 -24 28
17 32 18 32 4 0 -9 11 -21 25 -28 20 -9 32 -7 72 13 l48 24 23 -23 c26 -27 64
-24 117 8 30 19 30 18 53 -6 18 -21 27 -24 54 -19 18 4 43 13 55 21 28 18 33
18 33 0 0 -24 27 -26 54 -5 14 11 26 16 26 10 0 -6 9 -15 21 -22 27 -14 95 10
129 46 29 31 18 46 -13 18 -30 -27 -61 -43 -86 -43 -22 0 -24 6 -22 51 2 22
-2 25 -32 26 -25 1 -46 -9 -77 -33 -45 -36 -76 -48 -107 -42 -30 5 -27 71 11
213 21 78 31 134 26 139 -12 12 -20 -12 -61 -172 -37 -149 -55 -174 -128 -176
-36 -1 -36 -1 -39 44 -1 27 11 95 32 173 18 70 30 130 25 133 -12 7 -25 -29
-63 -180 -31 -121 -35 -131 -67 -153 -58 -40 -93 -28 -82 30 6 33 -9 35 -30 4
-19 -29 -80 -62 -101 -54 -9 4 -16 17 -16 30 0 53 -39 61 -81 16 l-29 -31 0
26 c0 46 -35 45 -98 0 -23 -17 -23 -17 -17 9 8 32 2 34 -32 7 -14 -11 -41 -20
-59 -20 -24 0 -34 5 -39 20 -8 25 -50 27 -64 3 -10 -17 -10 -17 -11 0 0 24 -8
22 -35 -12 -28 -32 -77 -56 -100 -47 -9 3 -15 18 -15 41 0 37 -15 47 -24 17
-9 -26 -56 -70 -56 -51 0 20 12 34 34 43 15 5 17 9 7 19 -17 17 -41 -1 -70
-53 -36 -64 -143 -172 -203 -205 -67 -37 -153 -41 -188 -10 -89 79 -55 311 72
501 51 77 103 125 162 149 48 20 72 19 97 -6 44 -44 3 -203 -70 -277 -33 -32
-65 -46 -41 -17 19 23 3 31 -20 10 -24 -22 -26 -55 -4 -55 76 0 178 157 178
276 1 89 -32 120 -111 103z m1488 -447 c-5 -10 -17 -24 -25 -32 -14 -11 -16
-9 -16 9 0 18 19 34 48 40 1 1 -2 -7 -7 -17z"/>
<path d="M385 3066 c-151 -68 -295 -329 -295 -534 0 -123 46 -182 143 -182 95
0 198 62 282 169 43 55 49 59 71 49 18 -8 28 -7 46 4 13 8 39 17 58 21 19 3
42 8 52 12 11 4 18 0 22 -13 10 -30 35 -35 72 -13 19 11 34 16 34 10 0 -5 10
-14 23 -20 22 -10 55 -1 108 28 4 2 -2 -27 -12 -64 -23 -81 -25 -143 -6 -143
21 0 28 12 16 26 -8 10 4 69 45 224 31 115 56 212 56 215 0 3 86 5 190 5 120
0 190 4 190 10 0 6 -68 10 -185 10 -102 0 -185 1 -185 3 0 1 7 27 15 57 17 63
19 90 7 90 -5 0 -18 -33 -29 -72 l-19 -73 -92 -3 c-117 -4 -122 -22 -6 -22
l87 0 -7 -32 c-4 -18 -16 -68 -28 -111 -18 -70 -25 -81 -58 -104 -21 -13 -49
-23 -62 -21 -20 3 -23 8 -21 41 1 20 0 37 -4 37 -3 0 -21 -18 -40 -40 -19 -22
-42 -40 -50 -40 -13 0 -14 8 -9 40 6 40 -5 54 -21 26 -11 -19 -48 -36 -77 -36
-21 0 -26 5 -26 25 0 20 -5 25 -25 25 -14 0 -28 -6 -31 -14 -3 -8 -13 -12 -25
-9 -12 4 -19 0 -19 -9 0 -22 -91 -139 -141 -182 -117 -100 -249 -111 -295 -24
-43 80 -10 268 74 418 87 157 231 251 288 189 40 -45 8 -186 -62 -267 -38 -45
-59 -54 -49 -22 9 28 -11 25 -31 -5 -35 -54 18 -61 74 -10 62 55 104 145 110
231 4 63 2 74 -17 93 -25 25 -89 28 -136 7z m260 -426 c3 -5 1 -10 -4 -10 -6
0 -11 5 -11 10 0 6 2 10 4 10 3 0 8 -4 11 -10z m-30 -30 c18 -19 17 -20 -3
-20 -15 0 -22 6 -22 20 0 11 2 20 3 20 2 0 12 -9 22 -20z"/>
<path d="M2147 2943 c-3 -5 -22 -71 -42 -147 -37 -144 -43 -204 -23 -224 16
-16 48 -15 67 2 22 18 135 40 139 26 14 -42 61 -46 114 -9 15 10 30 19 33 19
16 0 -14 -61 -58 -114 -69 -85 -129 -209 -125 -261 2 -32 7 -41 24 -43 45 -6
112 117 155 287 15 61 63 109 136 137 23 9 43 21 43 25 0 18 -38 8 -94 -26
-43 -26 -56 -30 -52 -17 21 71 15 92 -14 56 -22 -26 -99 -66 -116 -60 -11 4
-13 14 -8 41 6 35 -8 50 -19 21 -6 -14 -65 -36 -99 -36 -10 0 -18 9 -20 23 -4
27 -39 35 -58 12 -11 -13 -11 -21 -2 -36 15 -24 15 -26 -3 -33 -8 -3 -19 3
-25 14 -11 21 1 87 44 245 13 50 21 94 16 98 -4 5 -10 5 -13 0z m246 -505
c-38 -130 -86 -227 -108 -217 -17 7 -8 56 23 121 27 58 86 148 97 148 2 0 -3
-24 -12 -52z"/>
<path d="M4242 2728 c-15 -15 -16 -38 -2 -38 12 0 23 25 18 40 -2 7 -7 7 -16
-2z"/>
<path d="M1400 2660 c-16 -16 -20 -17 -20 -5 0 22 -8 19 -35 -14 -28 -32 -77
-56 -100 -47 -9 3 -15 18 -15 41 0 19 -3 35 -7 35 -5 -1 -20 -19 -35 -40 -39
-56 -80 -53 -58 4 11 31 -4 45 -19 17 -15 -27 -14 -66 3 -80 15 -13 59 -1 71
19 5 8 13 5 26 -9 24 -26 33 -26 86 -2 40 19 41 19 46 0 8 -30 20 -23 46 27
l24 45 22 -27 c19 -24 25 -26 63 -19 34 5 42 4 42 -9 0 -24 36 -38 78 -30 62
11 155 64 140 79 -2 2 -30 -9 -63 -26 -61 -30 -115 -36 -123 -11 -2 8 7 12 26
12 31 0 58 22 47 40 -9 15 -38 12 -86 -10 -58 -26 -99 -26 -106 -1 -7 29 -31
33 -53 11z"/>
</g>
</svg>
