<?xml version="1.0" standalone="no"?>
<!DOCTYPE svg PUBLIC "-//W3C//DTD SVG 20010904//EN"
 "http://www.w3.org/TR/2001/REC-SVG-20010904/DTD/svg10.dtd">
<svg version="1.0" xmlns="http://www.w3.org/2000/svg"
 width="500.000000pt" height="500.000000pt" viewBox="0 0 500.000000 500.000000"
 preserveAspectRatio="xMidYMid meet">

<g transform="translate(0.000000,500.000000) scale(0.100000,-0.100000)"
fill="#000000" stroke="none">
<path d="M2390 4104 c-13 -33 -13 -344 0 -364 11 -18 -9 -28 -55 -29 -39 -1
-201 -42 -500 -127 l-240 -68 -160 0 c-186 1 -223 9 -487 115 -220 88 -449
175 -481 183 -24 6 -27 4 -27 -19 0 -63 36 -171 97 -296 36 -74 69 -152 73
-174 10 -50 -12 -95 -109 -225 -65 -87 -97 -150 -115 -222 -6 -28 -6 -28 47
-28 83 0 468 90 682 160 237 77 366 65 920 -84 77 -21 453 -151 462 -160 2 -2
-6 -23 -17 -48 -23 -52 -53 -250 -44 -291 3 -16 16 -33 30 -39 22 -10 30 -5
97 58 79 77 156 133 289 213 l86 51 259 4 c274 4 364 12 535 51 241 56 496
164 708 300 36 23 83 53 105 67 48 30 73 71 57 91 -9 10 -28 13 -65 10 l-52
-4 46 25 c25 13 51 32 58 40 20 24 5 66 -39 107 -42 41 -259 155 -366 193
-233 84 -599 158 -1167 236 -208 28 -266 55 -483 221 -58 43 -111 79 -120 79
-8 0 -19 -12 -24 -26z m1839 -730 c12 -15 21 -34 21 -44 0 -10 -9 -29 -21 -44
-24 -31 -72 -35 -101 -9 -23 20 -24 80 -1 105 25 28 77 24 102 -8z"/>
<path d="M1884 2126 c-9 -36 2 -46 47 -46 l39 0 0 -115 0 -115 40 0 40 0 0
114 0 115 43 3 c39 3 42 5 42 33 l0 30 -122 3 -122 3 -7 -25z"/>
<path d="M2350 2001 l0 -151 40 0 40 0 0 55 0 55 54 0 55 0 6 -55 c7 -54 8
-55 41 -55 l34 0 0 150 0 150 -35 0 -34 0 -3 -57 -3 -58 -57 -3 -57 -3 -3 58
-3 58 -37 3 -38 3 0 -150z"/>
<path d="M2867 2143 c-4 -3 -7 -71 -7 -150 l0 -143 120 0 120 0 0 30 0 30 -80
0 -80 0 0 30 0 30 70 0 70 0 0 30 0 30 -70 0 c-68 0 -70 1 -70 25 0 23 3 25
53 25 80 0 97 8 97 41 l0 29 -108 0 c-60 0 -112 -3 -115 -7z"/>
<path d="M518 1809 c-37 -21 -9 -77 32 -64 25 8 28 60 4 69 -19 7 -15 8 -36
-5z"/>
<path d="M653 1813 c-22 -8 -16 -61 7 -68 43 -14 69 44 31 65 -11 5 -21 10
-23 9 -2 0 -9 -3 -15 -6z"/>
<path d="M130 1550 l0 -150 40 0 40 0 0 55 0 55 65 0 65 0 0 30 0 30 -65 0
-65 0 0 30 c0 28 2 30 39 30 21 0 53 3 70 6 27 6 32 11 29 33 l-3 26 -107 3
-108 3 0 -151z"/>
<path d="M567 1693 c-4 -3 -7 -71 -7 -150 l0 -143 40 0 40 0 0 150 0 150 -33
0 c-19 0 -37 -3 -40 -7z"/>
<path d="M935 1691 c-33 -14 -58 -49 -58 -83 0 -38 36 -72 91 -88 51 -14 66
-25 59 -44 -9 -22 -54 -20 -102 4 -21 11 -39 19 -40 17 -6 -7 -25 -47 -25 -51
0 -17 85 -46 135 -46 49 0 60 4 86 29 56 57 32 119 -57 148 -56 17 -78 38 -54
53 11 7 39 2 96 -15 17 -5 23 -1 32 23 10 29 9 31 -29 46 -42 17 -101 20 -134
7z"/>
<path d="M1330 1551 l0 -151 40 0 40 0 0 55 0 55 54 0 c52 0 54 -1 60 -31 3
-17 6 -42 6 -55 0 -21 5 -24 35 -24 l35 0 0 150 0 150 -35 0 c-35 0 -35 0 -35
-44 0 -70 -5 -76 -66 -76 l-53 0 -3 58 -3 57 -37 3 -38 3 0 -150z"/>
<path d="M1847 1693 c-4 -3 -7 -71 -7 -150 l0 -143 120 0 120 0 0 30 0 30 -80
0 -80 0 0 30 0 30 70 0 70 0 0 30 0 30 -70 0 c-68 0 -70 1 -70 25 0 23 3 25
53 25 80 0 97 8 97 41 l0 29 -108 0 c-60 0 -112 -3 -115 -7z"/>
<path d="M2310 1550 l0 -150 35 0 c34 0 35 1 35 40 0 38 2 40 29 40 24 0 34
-8 52 -40 21 -37 26 -40 66 -40 l43 0 -29 47 -29 47 24 29 c31 36 32 94 4 130
-26 33 -75 47 -162 47 l-68 0 0 -150z m168 68 c32 -32 -11 -82 -65 -76 -25 3
-28 7 -31 46 l-3 42 43 0 c24 0 49 -5 56 -12z"/>
<path d="M2797 1693 c-4 -3 -7 -71 -7 -150 l0 -143 35 0 35 0 1 88 0 87 34
-72 c29 -63 37 -73 60 -73 22 0 30 10 59 73 l34 72 1 -87 1 -88 35 0 36 0 -3
148 -3 147 -40 0 -40 0 -40 -83 -40 -83 -42 85 c-41 82 -44 86 -76 86 -19 0
-37 -3 -40 -7z"/>
<path d="M3392 1556 c-34 -80 -62 -147 -62 -150 0 -4 18 -6 39 -6 33 0 40 4
45 25 6 23 10 25 71 25 60 0 66 -2 77 -25 9 -20 18 -25 50 -25 21 0 38 3 38 6
0 4 -27 71 -61 150 l-61 144 -37 0 -38 0 -61 -144z m120 -1 l17 -45 -41 0
c-34 0 -39 3 -33 18 4 9 12 29 17 45 5 15 13 27 17 27 4 0 14 -20 23 -45z"/>
<path d="M3867 1693 c-4 -3 -7 -71 -7 -150 l0 -143 35 0 35 0 1 58 c2 111 7
112 74 23 56 -75 62 -80 98 -81 l37 0 0 138 c0 75 -4 143 -9 150 -5 8 -21 12
-37 10 -29 -3 -29 -3 -34 -86 l-5 -83 -65 86 c-52 68 -70 85 -91 85 -14 0 -29
-3 -32 -7z"/>
<path d="M4370 1640 c0 -57 1 -60 25 -60 24 0 25 3 25 60 0 57 -1 60 -25 60
-24 0 -25 -3 -25 -60z"/>
<path d="M4715 1691 c-33 -14 -58 -49 -58 -83 0 -38 36 -72 91 -88 51 -14 66
-25 59 -44 -9 -22 -54 -20 -102 4 -21 11 -39 19 -40 17 -6 -7 -25 -47 -25 -51
0 -17 85 -46 135 -46 49 0 60 4 86 29 56 57 32 119 -57 148 -56 17 -78 38 -54
53 11 7 39 2 96 -15 17 -5 23 -1 32 23 10 29 9 31 -29 46 -42 17 -101 20 -134
7z"/>
<path d="M1540 1225 c0 -35 0 -35 45 -35 l45 0 0 -115 0 -115 34 0 33 0 6 68
c4 37 7 88 7 115 l0 47 40 0 c39 0 40 1 40 35 l0 35 -125 0 -125 0 0 -35z"/>
<path d="M2097 1248 c-3 -7 -32 -75 -65 -150 l-61 -138 40 0 c32 0 41 4 51 25
10 23 17 25 75 25 59 0 64 -2 73 -25 8 -21 16 -25 50 -25 22 0 40 2 40 4 0 9
-113 273 -122 284 -6 6 -25 12 -43 12 -18 0 -35 -6 -38 -12z m72 -165 c1 -8
-12 -13 -35 -13 -25 0 -35 4 -31 13 2 6 10 29 18 50 l14 39 17 -39 c9 -21 17
-44 17 -50z"/>
<path d="M2510 1111 l0 -151 100 0 100 0 0 30 c0 30 0 30 -60 30 l-59 0 -3
118 -3 117 -37 3 -38 3 0 -150z"/>
<path d="M2927 1254 c-4 -4 -7 -72 -7 -151 l0 -143 120 0 120 0 0 30 0 30 -80
0 -80 0 0 30 0 30 70 0 70 0 0 30 0 30 -70 0 c-68 0 -70 1 -70 25 0 23 3 25
49 25 27 0 63 3 80 6 27 6 32 11 29 33 l-3 26 -111 3 c-60 1 -113 -1 -117 -4z"/>
<path d="M3393 1023 c-19 -7 -16 -53 3 -60 18 -7 45 6 51 24 4 11 -23 44 -35
42 -4 0 -13 -3 -19 -6z"/>
</g>
</svg>
